<?xml version="1.0" standalone="no"?>
<!DOCTYPE svg PUBLIC "-//W3C//DTD SVG 20010904//EN"
 "http://www.w3.org/TR/2001/REC-SVG-20010904/DTD/svg10.dtd">
<svg version="1.0" xmlns="http://www.w3.org/2000/svg"
 width="42.000000pt" height="42.000000pt" viewBox="0 0 42.000000 42.000000"
 preserveAspectRatio="xMidYMid meet">

<g transform="translate(0.000000,42.000000) scale(0.100000,-0.100000)"
fill="#000000" stroke="none">
<path d="M0 401 c0 -6 11 -11 24 -11 21 0 26 -8 46 -82 12 -46 30 -112 40
-147 16 -55 17 -67 5 -84 -22 -32 -1 -67 42 -67 21 0 40 30 35 58 -2 8 14 12
54 12 47 0 55 -3 50 -16 -15 -39 41 -73 72 -42 18 18 14 56 -7 68 -11 5 -62
10 -115 10 -52 0 -98 4 -101 10 -4 6 31 10 97 10 57 0 109 4 116 9 11 7 62
157 62 183 0 4 -75 9 -167 10 l-166 3 -11 40 c-10 35 -16 40 -44 43 -18 2 -32
-1 -32 -7z m389 -118 c0 -10 -8 -45 -17 -78 l-17 -60 -108 -3 c-80 -2 -109 1
-112 10 -3 7 -14 43 -24 81 l-20 67 150 0 c136 0 149 -2 148 -17z m-222 -214
c15 -15 5 -39 -17 -39 -22 0 -32 24 -17 39 6 6 14 11 17 11 3 0 11 -5 17 -11z
m190 0 c16 -16 5 -39 -17 -39 -25 0 -35 18 -20 35 15 18 22 19 37 4z"/>
</g>
</svg>
