<?xml version="1.0" standalone="no"?>
<!DOCTYPE svg PUBLIC "-//W3C//DTD SVG 20010904//EN"
 "http://www.w3.org/TR/2001/REC-SVG-20010904/DTD/svg10.dtd">
<svg version="1.0" xmlns="http://www.w3.org/2000/svg"
 width="28.000000pt" height="27.000000pt" viewBox="0 0 28.000000 27.000000"
 preserveAspectRatio="xMidYMid meet">

<g transform="translate(0.000000,27.000000) scale(0.100000,-0.100000)"
fill="#000000" stroke="none">
<path d="M25 245 c-15 -14 -25 -36 -25 -53 0 -36 49 -111 103 -157 l41 -35 39
37 c54 54 97 121 97 155 0 58 -70 97 -120 66 -16 -10 -24 -10 -40 0 -31 19
-69 14 -95 -13z m95 -20 l27 -26 17 26 c21 32 46 32 75 1 33 -35 21 -75 -44
-144 l-53 -57 -55 56 c-67 69 -80 109 -46 145 29 31 46 30 79 -1z"/>
</g>
</svg>
