<?xml version="1.0" standalone="no"?>
<!DOCTYPE svg PUBLIC "-//W3C//DTD SVG 20010904//EN"
 "http://www.w3.org/TR/2001/REC-SVG-20010904/DTD/svg10.dtd">
<svg version="1.0" xmlns="http://www.w3.org/2000/svg"
 width="23.000000pt" height="23.000000pt" viewBox="0 0 23.000000 23.000000"
 preserveAspectRatio="xMidYMid meet">

<g transform="translate(0.000000,23.000000) scale(0.100000,-0.100000)"
fill="#000000" stroke="none">
<path d="M90 214 c0 -11 -5 -14 -16 -10 -23 9 -53 -20 -47 -45 4 -13 0 -19
-11 -19 -10 0 -16 -9 -16 -25 0 -16 6 -25 16 -25 10 0 13 -6 10 -18 -8 -24 25
-55 48 -46 11 4 16 1 16 -10 0 -10 9 -16 25 -16 16 0 25 6 25 16 0 11 6 13 19
9 25 -8 54 21 46 46 -4 13 -2 19 9 19 21 0 21 46 0 54 -8 3 -13 10 -9 16 3 5
1 19 -5 31 -9 16 -18 19 -36 15 -17 -5 -24 -2 -24 9 0 9 -9 15 -25 15 -16 0
-25 -6 -25 -16z m41 -15 c13 -13 27 -18 40 -14 18 6 20 4 15 -13 -4 -12 0 -26
9 -36 14 -14 14 -18 0 -39 -9 -14 -13 -32 -8 -42 5 -15 3 -17 -12 -12 -10 5
-28 1 -42 -9 -23 -14 -26 -14 -37 1 -7 9 -21 15 -31 13 -15 -2 -20 3 -21 21
-1 14 -9 30 -18 36 -20 15 -21 25 -1 25 14 0 17 5 19 40 1 8 8 15 16 16 35 2
40 5 40 19 0 20 6 19 31 -6z"/>
<path d="M76 154 c-20 -20 -20 -48 0 -68 20 -20 48 -20 68 0 21 21 20 47 -2
67 -23 21 -46 22 -66 1z m65 -20 c9 -11 10 -20 2 -32 -13 -22 -43 -22 -56 -1
-24 38 25 68 54 33z"/>
</g>
</svg>
